<?xml version="1.0" standalone="no"?>
<!DOCTYPE svg PUBLIC "-//W3C//DTD SVG 20010904//EN"
 "http://www.w3.org/TR/2001/REC-SVG-20010904/DTD/svg10.dtd">
<svg version="1.0" xmlns="http://www.w3.org/2000/svg"
 width="512.000000pt" height="512.000000pt" viewBox="0 0 512.000000 512.000000"
 preserveAspectRatio="xMidYMid meet">

<g transform="translate(0.000000,512.000000) scale(0.100000,-0.100000)"
fill="#000000" stroke="none">
<path d="M2470 3326 c-180 -51 -312 -197 -342 -380 -50 -303 223 -575 529
-526 264 43 444 309 378 563 -24 94 -56 149 -124 218 -68 68 -140 110 -222
128 -59 14 -164 12 -219 -3z m255 -168 c232 -120 231 -445 -1 -559 -57 -28
-78 -33 -139 -33 -61 0 -82 5 -138 32 -218 108 -237 403 -33 540 65 43 98 52
186 48 57 -2 87 -9 125 -28z"/>
<path d="M2127 2279 c-57 -13 -108 -43 -149 -86 -21 -22 -112 -176 -214 -363
-175 -319 -179 -325 -182 -393 -3 -48 1 -81 13 -114 67 -174 290 -219 428 -85
l37 36 0 -477 0 -477 515 0 515 0 0 476 0 476 23 -16 c76 -56 163 -74 242 -51
141 40 221 202 171 341 -8 22 -82 169 -164 328 -162 310 -189 349 -276 388
-51 23 -55 23 -486 25 -239 1 -452 -3 -473 -8z m902 -158 c21 -11 45 -31 55
-45 9 -14 81 -151 161 -304 118 -227 145 -286 145 -319 0 -82 -79 -133 -152
-99 -40 19 -58 48 -189 301 l-94 180 -6 -445 c-4 -245 -7 -552 -8 -682 l-1
-238 -140 0 -140 0 0 225 0 226 -82 -3 -83 -3 -3 -222 -2 -223 -140 0 -140 0
-2 669 -3 668 -130 -216 c-156 -259 -175 -281 -240 -281 -38 0 -52 5 -76 29
-24 24 -29 38 -29 75 0 41 19 80 161 339 89 160 172 306 185 323 47 64 46 64
502 64 389 0 415 -1 451 -19z"/>
</g>
</svg>
